<svg width="31" height="35" viewBox="0 0 31 35" fill="none" xmlns="http://www.w3.org/2000/svg">
<path d="M26.3569 6.6377C23.4576 3.7666 19.5964 2.1875 15.4931 2.1875C7.02344 2.1875 0.131473 8.99609 0.131473 17.3633C0.131473 20.0361 0.837277 22.6475 2.17969 24.9512L0 32.8125L8.14442 30.7002C10.3864 31.9102 12.9121 32.5459 15.4862 32.5459H15.4931C23.9558 32.5459 31 25.7373 31 17.3701C31 13.3164 29.2562 9.50879 26.3569 6.6377ZM15.4931 29.9893C13.1958 29.9893 10.9469 29.3809 8.98862 28.2324L8.525 27.959L3.69509 29.21L4.98214 24.5547L4.67768 24.0762C3.39754 22.0664 2.72634 19.749 2.72634 17.3633C2.72634 10.4111 8.4558 4.75098 15.5 4.75098C18.9114 4.75098 22.1152 6.06348 24.5232 8.44922C26.9312 10.835 28.4121 14 28.4051 17.3701C28.4051 24.3291 22.5304 29.9893 15.4931 29.9893ZM22.4958 20.542C22.1152 20.3506 20.2261 19.4346 19.8732 19.3115C19.5203 19.1816 19.2643 19.1201 19.0083 19.5029C18.7522 19.8857 18.0187 20.7334 17.7904 20.9932C17.569 21.2461 17.3406 21.2803 16.96 21.0889C14.7042 19.9746 13.2234 19.0996 11.7357 16.5771C11.3413 15.9072 12.1301 15.9551 12.8636 14.5059C12.9882 14.2529 12.9259 14.0342 12.829 13.8428C12.7321 13.6514 11.9641 11.7852 11.6458 11.0264C11.3344 10.2881 11.0161 10.3906 10.7808 10.377C10.5594 10.3633 10.3033 10.3633 10.0473 10.3633C9.79129 10.3633 9.37611 10.459 9.02321 10.835C8.67031 11.2178 7.6808 12.1338 7.6808 14C7.6808 15.8662 9.05781 17.6709 9.24464 17.9238C9.43839 18.1768 11.9502 22.0049 15.8045 23.6523C18.2402 24.6914 19.1951 24.7803 20.4129 24.6025C21.1533 24.4932 22.6826 23.6865 23.0009 22.7979C23.3192 21.9092 23.3192 21.1504 23.2223 20.9932C23.1324 20.8223 22.8763 20.7266 22.4958 20.542Z" fill="white"/>
</svg>
