<svg width="34" height="34" viewBox="0 0 34 34" fill="none" xmlns="http://www.w3.org/2000/svg">
<g clip-path="url(#clip0_10_147)">
<path d="M30.8125 17C30.8125 20.6633 29.3573 24.1766 26.7669 26.7669C24.1766 29.3573 20.6633 30.8125 17 30.8125C13.3367 30.8125 9.82343 29.3573 7.23309 26.7669C4.64274 24.1766 3.1875 20.6633 3.1875 17C3.1875 13.3367 4.64274 9.82343 7.23309 7.23309C9.82343 4.64274 13.3367 3.1875 17 3.1875C20.6633 3.1875 24.1766 4.64274 26.7669 7.23309C29.3573 9.82343 30.8125 13.3367 30.8125 17ZM0 17C0 21.5087 1.79107 25.8327 4.97919 29.0208C8.1673 32.2089 12.4913 34 17 34C21.5087 34 25.8327 32.2089 29.0208 29.0208C32.2089 25.8327 34 21.5087 34 17C34 12.4913 32.2089 8.1673 29.0208 4.97919C25.8327 1.79107 21.5087 0 17 0C12.4913 0 8.1673 1.79107 4.97919 4.97919C1.79107 8.1673 0 12.4913 0 17ZM15.4062 7.96875V17C15.4062 17.5312 15.6719 18.0293 16.1168 18.3281L22.4918 22.5781C23.2223 23.0695 24.2117 22.8703 24.7031 22.1332C25.1945 21.3961 24.9953 20.4133 24.2582 19.9219L18.5938 16.15V7.96875C18.5938 7.08555 17.8832 6.375 17 6.375C16.1168 6.375 15.4062 7.08555 15.4062 7.96875Z" fill="#02192E"/>
</g>
<defs>
<clipPath id="clip0_10_147">
<rect width="34" height="34" fill="white"/>
</clipPath>
</defs>
</svg>
