<svg width="131" height="127" viewBox="0 0 131 127" fill="none" xmlns="http://www.w3.org/2000/svg">
<path d="M78.737 7.9375H104.985C108.615 7.9375 111.547 11.4846 111.547 15.875C111.547 20.2654 108.615 23.8125 104.985 23.8125H81.6899C80.6236 30.2121 76.9939 35.4955 72.1749 38.0256V111.125H104.985C108.615 111.125 111.547 114.672 111.547 119.062C111.547 123.453 108.615 127 104.985 127H65.6128H26.2402C22.6105 127 19.6781 123.453 19.6781 119.062C19.6781 114.672 22.6105 111.125 26.2402 111.125H59.0507V38.0256C54.2316 35.4707 50.602 30.1873 49.5356 23.8125H26.2402C22.6105 23.8125 19.6781 20.2654 19.6781 15.875C19.6781 11.4846 22.6105 7.9375 26.2402 7.9375H52.4886C55.4825 3.12539 60.2401 0 65.6128 0C70.9855 0 75.743 3.12539 78.737 7.9375ZM90.1386 79.375H119.832L104.985 48.5676L90.1386 79.375ZM104.985 103.188C92.0867 103.188 81.3618 94.7539 79.1471 83.6166C78.6139 80.8881 79.3522 78.0852 80.521 75.6543L100.043 35.173C101.069 33.0398 102.955 31.75 104.985 31.75C107.016 31.75 108.902 33.0646 109.927 35.173L129.45 75.6543C130.619 78.0852 131.357 80.8881 130.824 83.6166C128.609 94.7539 117.884 103.188 104.985 103.188ZM25.9941 48.5676L11.1474 79.375H40.8614L25.9941 48.5676ZM0.176381 83.6166C-0.356789 80.8881 0.381447 78.0852 1.55032 75.6543L21.0726 35.173C22.0979 33.0398 23.9845 31.75 26.0146 31.75C28.0448 31.75 29.9314 33.0646 30.9567 35.173L50.4789 75.6543C51.6478 78.0852 52.3861 80.8881 51.8529 83.6166C49.6177 94.7539 38.8927 103.188 25.9941 103.188C13.0955 103.188 2.39109 94.7539 0.176381 83.6166Z" fill="white"/>
</svg>
