<svg width="143" height="141" viewBox="0 0 143 141" fill="none" xmlns="http://www.w3.org/2000/svg">
<path d="M40.8724 10.395C40.8724 6.80539 44.0644 3.82329 48.1821 3.51956L96.6373 0.0128241C99.6059 -0.18046 102.16 1.83522 102.16 4.43075V12.88C102.16 15.3099 99.8613 17.298 97.0523 17.298H48.8525C44.4475 17.298 40.8724 14.2054 40.8724 10.395ZM46.4904 26.1338H96.5416C96.8608 27.5697 97.0523 29.0331 97.0523 30.5518C97.0523 42.7563 85.6248 52.6414 71.516 52.6414C57.4071 52.6414 45.9796 42.7563 45.9796 30.5518C45.9796 29.0331 46.1712 27.5697 46.4904 26.1338ZM119.269 126.725L102.16 101.708V132.164C102.16 132.523 102.128 132.854 102.096 133.213L46.4584 64.487C51.7572 62.5265 57.5029 61.4773 63.472 61.4773H79.5599C84.6353 61.4773 89.551 62.2504 94.1795 63.6586L124.472 18.3196C122.014 17.1047 121.184 14.3987 122.589 12.2726C123.993 10.1465 127.121 9.42854 129.579 10.6435L134.016 12.8524L138.453 15.0614C140.911 16.2763 141.741 18.9823 140.336 21.1084L122.589 47.6436L123.099 47.8921C127.983 50.322 129.675 55.734 126.834 59.9586L115.119 77.4923C115.758 78.2654 116.364 79.0938 116.939 79.9221L141.23 115.486C144.805 120.733 142.794 127.498 136.729 130.618C130.664 133.738 122.844 131.971 119.237 126.725H119.269ZM91.945 141H51.0869C45.437 141 40.8724 137.051 40.8724 132.164V101.708L23.763 126.725C20.188 131.971 12.3355 133.71 6.27065 130.618C0.205776 127.525 -1.80521 120.733 1.76988 115.486L26.0613 79.9221C29.0618 75.5594 32.988 71.8318 37.5527 68.8773L95.4882 140.448C94.371 140.807 93.1899 141 91.945 141ZM84.2841 87.9848C86.3159 87.9848 88.2645 87.2867 89.7012 86.0439C91.1379 84.8011 91.945 83.1155 91.945 81.358C91.945 79.6004 91.1379 77.9148 89.7012 76.672C88.2645 75.4293 86.3159 74.7311 84.2841 74.7311C82.2523 74.7311 80.3037 75.4293 78.8671 76.672C77.4304 77.9148 76.6232 79.6004 76.6232 81.358C76.6232 83.1155 77.4304 84.8011 78.8671 86.0439C80.3037 87.2867 82.2523 87.9848 84.2841 87.9848Z" fill="white"/>
</svg>
