<svg width="40" height="39" viewBox="0 0 40 39" fill="none" xmlns="http://www.w3.org/2000/svg">
<path d="M13.5584 2.3585C13.0098 0.979301 11.4395 0.18942 9.89188 0.50806L2.87203 1.95044C1.48384 2.2396 0.478937 3.34699 0.421809 4.65604C-0.363373 22.6482 14.8284 37.9276 34.3496 38.7795C35.7699 38.8415 37.055 38.016 37.489 36.7671L39.662 30.4499C40.1418 29.0573 39.4251 27.5469 37.9819 26.9228L30.5339 23.6833C29.2693 23.1326 27.7631 23.4093 26.8437 24.3675L23.4995 27.8137C18.0502 25.1495 13.7335 20.8079 11.3294 15.5734L15.3473 12.8123C16.4639 12.045 16.8944 10.694 16.4096 9.48512L13.5581 2.36577L13.5584 2.3585Z" fill="#1E1E1E"/>
</svg>
