<svg width="117" height="124" viewBox="0 0 117 124" fill="none" xmlns="http://www.w3.org/2000/svg">
<path d="M16.2278 3.02661C14.2622 3.2686 12.7994 5.01091 12.7994 7.092C12.7994 9.34248 14.5136 11.1574 16.6163 11.1816H42.0779C44.0893 11.1574 45.7121 9.43928 45.7121 7.30979V3.87357C45.7121 1.57469 43.815 -0.240217 41.6437 0.0259692L16.2278 3.02661ZM43.3122 18.901H15.1993C14.8336 20.2803 14.6279 21.7322 14.6279 23.2326C14.6279 31.7747 21.1875 38.7198 29.2557 38.7198C37.3239 38.7198 43.8836 31.7747 43.8836 23.2326C43.8836 21.7322 43.6779 20.2803 43.3122 18.901ZM7.31393 61.9505V69.6941C7.31393 73.9773 10.5823 77.4377 14.6279 77.4377H43.8836C44.295 77.4377 44.6835 77.4135 45.0721 77.3409L12.1137 50.4803C9.16527 53.3116 7.31393 57.4012 7.31393 61.9505ZM50.7861 72.235C51.0375 71.4364 51.1975 70.5895 51.1975 69.6941V61.9505C51.1975 53.4084 44.6378 46.4633 36.5696 46.4633H21.9418C21.0961 46.4633 20.2504 46.5359 19.4505 46.6811L50.7861 72.235ZM87.7671 38.7198C91.6467 38.7198 95.3673 37.0881 98.1106 34.1837C100.854 31.2792 102.395 27.34 102.395 23.2326C102.395 19.1251 100.854 15.1859 98.1106 12.2815C95.3673 9.37705 91.6467 7.74537 87.7671 7.74537C83.8876 7.74537 80.1669 9.37705 77.4237 12.2815C74.6804 15.1859 73.1393 19.1251 73.1393 23.2326C73.1393 27.34 74.6804 31.2792 77.4237 34.1837C80.1669 37.0881 83.8876 38.7198 87.7671 38.7198ZM80.4532 46.4633C72.385 46.4633 65.8254 53.4084 65.8254 61.9505V69.6941C65.8254 73.9773 69.0938 77.4377 73.1393 77.4377H102.395C106.441 77.4377 109.709 73.9773 109.709 69.6941V61.9505C109.709 53.4084 103.149 46.4633 95.0811 46.4633H80.4532ZM49.3233 108.92C50.5118 107.807 51.1975 106.234 51.1975 104.54C51.1975 102.846 50.5118 101.273 49.3233 100.16L34.6954 86.6091C33.0727 85.1087 30.7871 84.7458 28.8214 85.6895C26.8558 86.6333 25.5987 88.7143 25.5987 90.989V98.7326H5.48545C2.44559 98.7326 0 101.322 0 104.54C0 107.759 2.44559 110.348 5.48545 110.348H25.5987V118.092C25.5987 120.366 26.8558 122.447 28.8214 123.391C30.7871 124.335 33.0727 123.972 34.6954 122.472L49.3233 108.92ZM65.8254 104.516C65.8254 106.186 66.4882 107.783 67.6767 108.896L82.3046 122.544C83.9273 124.045 86.2129 124.432 88.1785 123.488C90.1442 122.544 91.4012 120.487 91.4012 118.188V110.348H111.515C114.554 110.348 117 107.759 117 104.54C117 101.322 114.554 98.7326 111.515 98.7326H91.4012V90.989C91.4012 88.7143 90.1442 86.6333 88.1785 85.6895C86.2129 84.7458 83.9273 85.1087 82.3046 86.6091L67.6767 100.16C66.4882 101.249 65.8025 102.846 65.8025 104.516H65.8254Z" fill="white"/>
</svg>
