<svg width="105" height="112" viewBox="0 0 105 112" fill="none" xmlns="http://www.w3.org/2000/svg">
<path d="M52.5 56C39.0938 56 27.75 47.7969 23.9062 36.4656C23.6484 36.75 23.3906 37.0344 23.0859 37.2969C19.3828 40.7531 13.9922 41.825 10.5234 42.1313C8.625 42.3063 7.10156 40.8844 7.28906 39.1125C7.61719 35.8969 8.76562 30.8438 12.4688 27.3875C13.8281 26.1187 15.4219 25.1781 17.0625 24.4563C15.4219 23.7563 13.8281 22.7938 12.4688 21.525C8.76562 18.0906 7.64062 13.0594 7.28906 9.82188C7.10156 8.05 8.625 6.62813 10.5234 6.80312C13.9688 7.10938 19.3828 8.18125 23.0859 11.6375C24.2109 12.6875 25.125 13.9125 25.8281 15.1594C30.7969 6.16875 40.875 0 52.5 0C69.0703 0 82.5 12.5344 82.5 28C82.5 43.4656 69.0703 56 52.5 56ZM0 105.503C0 87.3906 13.2188 72.1875 31.125 67.7906C32.5312 67.4406 33.9844 67.9875 34.8516 69.0594L49.5 87.2812C51 89.1406 54 89.1406 55.5 87.2812L70.1484 69.0594C71.0156 67.9875 72.4688 67.4406 73.875 67.7906C91.7812 72.1875 105 87.3906 105 105.503C105 109.091 101.883 112 98.0391 112H6.96094C3.11719 112 0 109.091 0 105.503ZM37.5 21C35.4375 21 33.75 22.575 33.75 24.5C33.75 26.425 35.4375 28 37.5 28H67.5C69.5625 28 71.25 26.425 71.25 24.5C71.25 22.575 69.5625 21 67.5 21H37.5Z" fill="white"/>
</svg>
