<svg width="84" height="94" viewBox="0 0 84 94" fill="none" xmlns="http://www.w3.org/2000/svg">
<path d="M14 0C6.27813 0 0 5.26914 0 11.75V82.25C0 88.7309 6.27813 94 14 94H70C77.7219 94 84 88.7309 84 82.25V29.375H56C52.1281 29.375 49 26.7496 49 23.5V0H14ZM56 0V23.5H84L56 0ZM24.5 47H59.5C61.425 47 63 48.3219 63 49.9375C63 51.5531 61.425 52.875 59.5 52.875H24.5C22.575 52.875 21 51.5531 21 49.9375C21 48.3219 22.575 47 24.5 47ZM24.5 58.75H59.5C61.425 58.75 63 60.0719 63 61.6875C63 63.3031 61.425 64.625 59.5 64.625H24.5C22.575 64.625 21 63.3031 21 61.6875C21 60.0719 22.575 58.75 24.5 58.75ZM24.5 70.5H59.5C61.425 70.5 63 71.8219 63 73.4375C63 75.0531 61.425 76.375 59.5 76.375H24.5C22.575 76.375 21 75.0531 21 73.4375C21 71.8219 22.575 70.5 24.5 70.5Z" fill="white"/>
</svg>
